<?xml version="1.0" encoding="UTF-8"?>
<svg width="103px" height="103px" viewBox="0 0 103 103" version="1.1" xmlns="http://www.w3.org/2000/svg" xmlns:xlink="http://www.w3.org/1999/xlink">
  <path fill="rgb(225, 229, 229)" d="M101,92 L101,101 L92,101 L92,92 L101,92 Z M81,92 L81,101 L72,101 L72,92 L81,92 Z M71,92 L71,101 L62,101 L62,92 L71,92 Z M61,92 L61,101 L52,101 L52,92 L61,92 Z M51,92 L51,101 L42,101 L42,92 L51,92 Z M41,92 L41,101 L32,101 L32,92 L41,92 Z M31,92 L31,101 L22,101 L22,92 L31,92 Z M21,92 L21,101 L12,101 L12,92 L21,92 Z M11,92 L11,101 L2,101 L2,92 L11,92 Z M91,92 L91,101 L82,101 L82,92 L91,92 Z M11,82 L11,91 L2,91 L2,82 L11,82 Z M21,82 L21,91 L12,91 L12,82 L21,82 Z M31,82 L31,91 L22,91 L22,82 L31,82 Z M41,82 L41,91 L32,91 L32,82 L41,82 Z M51,82 L51,91 L42,91 L42,82 L51,82 Z M61,82 L61,91 L52,91 L52,82 L61,82 Z M71,82 L71,91 L62,91 L62,82 L71,82 Z M81,82 L81,91 L72,91 L72,82 L81,82 Z M91,82 L91,91 L82,91 L82,82 L91,82 Z M101,82 L101,91 L92,91 L92,82 L101,82 Z M11,72 L11,81 L2,81 L2,72 L11,72 Z M21,72 L21,81 L12,81 L12,72 L21,72 Z M31,72 L31,81 L22,81 L22,72 L31,72 Z M41,72 L41,81 L32,81 L32,72 L41,72 Z M51,72 L51,81 L42,81 L42,72 L51,72 Z M61,72 L61,81 L52,81 L52,72 L61,72 Z M71,72 L71,81 L62,81 L62,72 L71,72 Z M81,72 L81,81 L72,81 L72,72 L81,72 Z M91,72 L91,81 L82,81 L82,72 L91,72 Z M101,72 L101,81 L92,81 L92,72 L101,72 Z M71,62 L71,71 L62,71 L62,62 L71,62 Z M11,62 L11,71 L2,71 L2,62 L11,62 Z M101,62 L101,71 L92,71 L92,62 L101,62 Z M91,62 L91,71 L82,71 L82,62 L91,62 Z M81,62 L81,71 L72,71 L72,62 L81,62 Z M61,62 L61,71 L52,71 L52,62 L61,62 Z M51,62 L51,71 L42,71 L42,62 L51,62 Z M41,62 L41,71 L32,71 L32,62 L41,62 Z M31,62 L31,71 L22,71 L22,62 L31,62 Z M21,62 L21,71 L12,71 L12,62 L21,62 Z M21,52 L21,61 L12,61 L12,52 L21,52 Z M11,52 L11,61 L2,61 L2,52 L11,52 Z M101,52 L101,61 L92,61 L92,52 L101,52 Z M91,52 L91,61 L82,61 L82,52 L91,52 Z M81,52 L81,61 L72,61 L72,52 L81,52 Z M71,52 L71,61 L62,61 L62,52 L71,52 Z M61,52 L61,61 L52,61 L52,52 L61,52 Z M51,52 L51,61 L42,61 L42,52 L51,52 Z M41,52 L41,61 L32,61 L32,52 L41,52 Z M31,52 L31,61 L22,61 L22,52 L31,52 Z M101,42 L101,51 L92,51 L92,42 L101,42 Z M91,42 L91,51 L82,51 L82,42 L91,42 Z M81,42 L81,51 L72,51 L72,42 L81,42 Z M71,42 L71,51 L62,51 L62,42 L71,42 Z M61,42 L61,51 L52,51 L52,42 L61,42 Z M51,42 L51,51 L42,51 L42,42 L51,42 Z M41,42 L41,51 L32,51 L32,42 L41,42 Z M31,42 L31,51 L22,51 L22,42 L31,42 Z M21,42 L21,51 L12,51 L12,42 L21,42 Z M11,42 L11,51 L2,51 L2,42 L11,42 Z M101,32 L101,41 L92,41 L92,32 L101,32 Z M91,32 L91,41 L82,41 L82,32 L91,32 Z M81,32 L81,41 L72,41 L72,32 L81,32 Z M71,32 L71,41 L62,41 L62,32 L71,32 Z M61,32 L61,41 L52,41 L52,32 L61,32 Z M51,32 L51,41 L42,41 L42,32 L51,32 Z M41,32 L41,41 L32,41 L32,32 L41,32 Z M31,32 L31,41 L22,41 L22,32 L31,32 Z M21,32 L21,41 L12,41 L12,32 L21,32 Z M11,32 L11,41 L2,41 L2,32 L11,32 Z M101,22 L101,31 L92,31 L92,22 L101,22 Z M91,22 L91,31 L82,31 L82,22 L91,22 Z M81,22 L81,31 L72,31 L72,22 L81,22 Z M71,22 L71,31 L62,31 L62,22 L71,22 Z M61,22 L61,31 L52,31 L52,22 L61,22 Z M51,22 L51,31 L42,31 L42,22 L51,22 Z M41,22 L41,31 L32,31 L32,22 L41,22 Z M31,22 L31,31 L22,31 L22,22 L31,22 Z M21,22 L21,31 L12,31 L12,22 L21,22 Z M11,22 L11,31 L2,31 L2,22 L11,22 Z M71,12 L71,21 L62,21 L62,12 L71,12 Z M11,12 L11,21 L2,21 L2,12 L11,12 Z M101,12 L101,21 L92,21 L92,12 L101,12 Z M91,12 L91,21 L82,21 L82,12 L91,12 Z M81,12 L81,21 L72,21 L72,12 L81,12 Z M61,12 L61,21 L52,21 L52,12 L61,12 Z M51,12 L51,21 L42,21 L42,12 L51,12 Z M41,12 L41,21 L32,21 L32,12 L41,12 Z M31,12 L31,21 L22,21 L22,12 L31,12 Z M21,12 L21,21 L12,21 L12,12 L21,12 Z M31,2 L31,11 L22,11 L22,2 L31,2 Z M21,2 L21,11 L12,11 L12,2 L21,2 Z M11,2 L11,11 L2,11 L2,2 L11,2 Z M101,2 L101,11 L92,11 L92,2 L101,2 Z M91,2 L91,11 L82,11 L82,2 L91,2 Z M81,2 L81,11 L72,11 L72,2 L81,2 Z M71,2 L71,11 L62,11 L62,2 L71,2 Z M61,2 L61,11 L52,11 L52,2 L61,2 Z M51,2 L51,11 L42,11 L42,2 L51,2 Z M41,2 L41,11 L32,11 L32,2 L41,2 Z"></path>
</svg>
