<svg viewBox="0 0 16 16">
  <path d="M13.6568542,2.34314575 C16.7810486,5.46734008 16.7810486,10.5326599 13.6568542,13.6568542 C10.5326599,16.7810486 5.46734008,16.7810486 2.34314575,13.6568542 C-0.781048583,10.5326599 -0.781048583,5.46734008 2.34314575,2.34314575 C5.46734008,-0.781048583 10.5326599,-0.781048583 13.6568542,2.34314575 Z M6.58578644,8 L3.10843823,4.52379287 C1.63032479,6.59844748 1.63052062,9.40257025 3.10902571,11.4770316 L6.58578644,8 Z M11.4762071,12.8915618 L8,9.41421356 L4.52379287,12.8915618 C6.59817265,14.3694794 9.40182735,14.3694794 11.4762071,12.8915618 Z M4.52296843,3.10902571 L8,6.58578644 L11.4770316,3.10902571 C9.40229545,1.63032476 6.59770455,1.63032476 4.52296843,3.10902571 Z M12.8915618,4.52379287 L9.41421356,8 L12.8909743,11.4770316 C14.3694794,9.40257025 14.3696752,6.59844748 12.8915618,4.52379287 Z"></path>
</svg>
