<svg viewBox="0 0 21 5" version="1.1" xmlns="http://www.w3.org/2000/svg" xmlns:xlink="http://www.w3.org/1999/xlink">
  <path d="M2.5,0 C3.88071187,0 5,1.11928813 5,2.5 C5,3.88071187 3.88071187,5 2.5,5 C1.11928813,5 0,3.88071187 0,2.5 C0,1.11928813 1.11928813,0 2.5,0 Z M2.5,1 C1.67157288,1 1,1.67157288 1,2.5 C1,3.32842712 1.67157288,4 2.5,4 C3.32842712,4 4,3.32842712 4,2.5 C4,1.67157288 3.32842712,1 2.5,1 Z M14.875,0.20225042 L14.875,4.79775099 C14.875,4.86678658 14.8190356,4.92275099 14.75,4.92275099 C14.7305953,4.92275099 14.7114571,4.91823331 14.6941009,4.90955568 L13.8751232,4.50009055 C13.4572718,4.81399103 12.9378583,5 12.375,5 C10.9942881,5 9.875,3.88071187 9.875,2.5 C9.875,1.11928813 10.9942881,0 12.375,0 C12.9378611,0 13.457277,0.186010817 13.8751294,0.499914126 L14.6941002,0.0904460743 C14.755848,0.0595734637 14.8309317,0.0846027785 14.8618043,0.146350613 C14.8704822,0.16370705 14.875,0.182845498 14.875,0.20225042 Z M12.375,1 C11.5465729,1 10.875,1.67157288 10.875,2.5 C10.875,3.32842712 11.5465729,4 12.375,4 C13.2034271,4 13.875,3.32842712 13.875,2.5 C13.875,1.67157288 13.2034271,1 12.375,1 Z M9.58107204,0.321682793 L7.09375,3.875 L9.02446904,3.875 C9.0675678,3.875 9.10762654,3.89720246 9.13046883,3.93375013 L9.59921883,4.68375013 C9.63580762,4.7422922 9.61801098,4.819411 9.55946891,4.85599979 C9.53960246,4.86841632 9.51664651,4.875 9.49321904,4.875 L5.39633195,4.875 C5.32729635,4.875 5.27133195,4.81903559 5.27133195,4.75 C5.27133195,4.72435349 5.27922065,4.69932765 5.29392796,4.67831721 L7.78125,1.125 L5.85053096,1.125 C5.8074322,1.125 5.76737346,1.10279754 5.74453117,1.06624987 L5.27578117,0.316249868 C5.23919238,0.257707801 5.25698902,0.180589003 5.31553109,0.144000212 C5.33539754,0.131583681 5.35835349,0.125 5.38178096,0.125 L9.47866805,0.125 C9.54770365,0.125 9.60366805,0.180964406 9.60366805,0.25 C9.60366805,0.275646513 9.59577935,0.300672351 9.58107204,0.321682793 Z M16.1808998,0.0904460743 L16.9998706,0.499914126 C17.417723,0.186010817 17.9371389,0 18.5,0 C19.8807119,0 21,1.11928813 21,2.5 L21,4.75 C21,4.81903559 20.9440356,4.875 20.875,4.875 L20.125,4.875 C20.0559644,4.875 20,4.81903559 20,4.75 L20,2.5 C20,1.67157288 19.3284271,1 18.5,1 C17.6715729,1 17,1.67157288 17,2.5 L17,4.75 C17,4.81903559 16.9440356,4.875 16.875,4.875 L16.125,4.875 C16.0559644,4.875 16,4.81903559 16,4.75 L16,0.20225042 C16,0.133214826 16.0559644,0.0772504197 16.125,0.0772504197 C16.1444049,0.0772504197 16.1635434,0.0817682233 16.1808998,0.0904460743 Z"></path>
</svg>